<svg width="120" height="34" viewBox="0 0 120 34" fill="none" xmlns="http://www.w3.org/2000/svg">
<path d="M1.08952 19.2345C1.08952 19.2345 1.06775 19.2244 1.02421 19.204C0.982674 19.1968 0.927944 19.1915 0.860034 19.1883C0.805314 19.1831 0.738395 19.1865 0.659295 19.1984C0.440385 19.1776 0.270844 19.0818 0.150674 18.9112C0.0324943 18.7537 -0.0161656 18.5656 0.00469441 18.3467C0.0494644 18.286 0.0720845 18.1679 0.0725545 17.9925C0.0730245 17.8172 0.0652945 17.6767 0.0493645 17.5713C0.0861645 17.4578 0.108165 17.3804 0.115375 17.3388C0.120585 17.2841 0.133624 17.1473 0.154494 16.9284C0.160174 16.6983 0.179284 16.3785 0.211814 15.969C0.255534 15.5444 0.301864 15.0924 0.350794 14.613C0.412914 14.1317 0.471424 13.6711 0.526344 13.2313C0.581254 12.7915 0.632935 12.4196 0.681405 12.1156C0.743045 11.8097 0.790654 11.6339 0.824234 11.5884C0.824234 11.5884 0.821244 11.5686 0.815274 11.529C0.807304 11.4763 0.799335 11.4236 0.791365 11.3708C0.791365 11.3708 0.788994 11.3105 0.784254 11.1899C0.790694 11.0541 0.834705 10.8991 0.916274 10.7249C0.947095 10.5719 0.969334 10.4068 0.982994 10.2294C0.996644 10.052 0.999495 9.93697 0.991525 9.88427C1.03429 9.81037 1.0829 9.64117 1.13734 9.37677C1.20297 9.09717 1.263 8.82508 1.31744 8.56068C1.36467 8.33778 1.4165 8.10067 1.47294 7.84947C1.54255 7.59627 1.59737 7.37897 1.63739 7.19757C1.6906 7.01427 1.7172 6.92258 1.7172 6.92258C1.70923 6.86988 1.70525 6.84347 1.70525 6.84347C1.70326 6.83027 1.70226 6.82367 1.70226 6.82367C1.74703 6.76297 1.83244 6.48037 1.95848 5.97587C2.09572 5.45627 2.28455 4.78718 2.52498 3.96878C2.56178 3.85528 2.60977 3.72667 2.66895 3.58287C2.72813 3.43907 2.75374 3.34087 2.74577 3.28817C2.79576 3.17267 2.88107 3.11257 3.00171 3.10787C3.12037 3.08997 3.245 3.11157 3.3756 3.17277C3.51939 3.23187 3.6352 3.32907 3.72303 3.46407L3.96859 3.75067L3.4718 5.28207C3.31664 5.68307 3.18945 6.04618 3.09025 6.37128C3.00423 6.69438 2.9652 6.88237 2.97317 6.93507C2.97317 6.93507 2.94955 7.04657 2.90232 7.26937C2.85509 7.49227 2.80065 7.75677 2.739 8.06267C2.67736 8.36867 2.62491 8.64628 2.58166 8.89558C2.49839 9.32618 2.41076 9.68327 2.31876 9.96687C2.23995 10.2485 2.20452 10.4157 2.21249 10.4684C2.20851 10.442 2.35054 10.4003 2.63859 10.3433C2.92664 10.2863 3.29479 10.224 3.74303 10.1562C4.19128 10.0885 4.64611 10.0198 5.10758 9.95007C5.58018 9.86517 5.99448 9.79578 6.35038 9.74208C6.71758 9.67308 6.96508 9.61547 7.09288 9.56917L8.10628 9.31488L8.47088 7.17647C8.52058 6.79137 8.59128 6.32217 8.68308 5.76897C8.77478 5.21567 8.85858 4.74458 8.93468 4.35547C9.05398 3.71718 9.16198 3.31657 9.25878 3.15357C9.35548 2.99067 9.48298 2.89717 9.64118 2.87327C9.68078 2.86737 9.73548 2.87257 9.80538 2.88897C9.88648 2.89017 9.96398 2.91217 10.0379 2.95497C10.1229 2.98257 10.1846 3.03397 10.223 3.10907C10.4031 3.23017 10.5005 3.38397 10.5152 3.57057C10.5431 3.75517 10.4745 4.01497 10.3093 4.35007C10.1522 4.73787 10.033 5.15367 9.95168 5.59747C9.88158 6.02617 9.81368 6.38027 9.74808 6.65987C9.77198 6.81807 9.77208 6.95287 9.74848 7.06427C9.72288 7.16257 9.68768 7.24207 9.64298 7.30277C9.62058 7.33308 9.58278 7.43997 9.52958 7.62327C9.47638 7.80667 9.42978 7.98898 9.38968 8.17037C9.34968 8.35168 9.33268 8.46217 9.33868 8.50167C9.35258 8.59397 9.34978 8.70897 9.33008 8.84687C9.31048 8.98467 9.27828 9.08387 9.23348 9.14457C9.21908 9.22767 9.18968 9.43437 9.14518 9.76477C9.10068 10.0951 9.05198 10.4868 8.99908 10.9398C8.94418 11.3796 8.88168 11.8138 8.81158 12.2424C8.73948 12.6579 8.67068 13.0054 8.60498 13.285C8.61898 13.3773 8.60398 13.5009 8.55988 13.6559C8.51388 13.7977 8.49888 13.9213 8.51478 14.0268C8.48598 14.193 8.44998 14.4007 8.40668 14.6499C8.36348 14.8992 8.34678 15.0568 8.35678 15.1227C8.33668 15.4359 8.31098 15.7567 8.27968 16.085C8.26158 16.4114 8.24308 16.6906 8.22418 16.9227C8.22048 17.166 8.22168 17.3074 8.22758 17.347C8.18288 17.4077 8.10478 17.4262 7.99328 17.4026C7.88188 17.379 7.74968 17.3518 7.59668 17.3209C7.32429 17.2138 7.14878 17.0785 7.07008 16.915C7.00668 16.7628 7.02448 16.5241 7.12378 16.199C7.17368 16.0836 7.21398 15.8145 7.24448 15.3919C7.28628 14.9541 7.32898 14.5229 7.37268 14.0982C7.42188 13.8885 7.46778 13.6119 7.51028 13.2684C7.55079 12.9116 7.59128 12.5549 7.63178 12.1982C7.67028 11.8283 7.70448 11.5197 7.73458 11.2724C7.76268 11.012 7.78788 10.8666 7.81028 10.8362C7.80228 10.7835 7.79528 10.7374 7.78938 10.6978C7.78338 10.6583 7.78038 10.6385 7.78038 10.6385C7.75008 10.6161 7.58228 10.6212 7.27708 10.6539C6.96978 10.6733 6.59308 10.7235 6.14688 10.8044C5.69858 10.8721 5.23258 10.956 4.74875 11.0561C4.27613 11.141 3.85264 11.2387 3.47828 11.3492C3.33326 11.3711 3.16846 11.396 2.98389 11.4239C2.79932 11.4518 2.6543 11.4737 2.54883 11.4896C2.40381 11.5115 2.27856 11.5305 2.17309 11.5464C2.08081 11.5603 2.03467 11.5673 2.03467 11.5673C2.02746 11.6088 2.00223 11.7542 1.95898 12.0035C1.91574 12.2528 1.86727 12.5567 1.81359 12.9155C1.75792 13.261 1.69765 13.6207 1.63278 13.9946C1.5791 14.3533 1.53462 14.6836 1.49934 14.9856C1.47526 15.2725 1.45899 15.4772 1.45055 15.5998C1.43367 15.8451 1.40598 16.1527 1.36748 16.5226C1.34216 16.8905 1.30465 17.267 1.25496 17.6521C1.22044 18.0483 1.18454 18.3909 1.14727 18.6797C1.12318 18.9665 1.10393 19.1515 1.08952 19.2345ZM14.7672 14.7812C14.5262 15.0603 14.2242 15.2475 13.861 15.3429C13.511 15.4362 13.1537 15.4363 12.789 15.343C12.4223 15.2366 12.103 15.0421 11.8311 14.7596C11.5631 14.5034 11.3683 14.1957 11.2466 13.8365C11.1229 13.4642 11.0416 12.9708 11.0027 12.3564C10.9646 11.8362 11.0517 11.2972 11.2641 10.7392C11.4744 10.168 11.7531 9.64717 12.1 9.17667C12.4602 8.70427 12.8326 8.35808 13.2174 8.13818C13.3953 7.97638 13.5511 7.89217 13.6849 7.88547C13.8299 7.86357 14.0495 7.84387 14.3435 7.82637C14.6527 7.82017 14.8858 7.84557 15.0427 7.90277C15.2129 7.95797 15.3541 8.04457 15.4663 8.16247C15.6939 8.33027 15.8556 8.50817 15.9514 8.69598C16.0452 8.87057 16.1061 9.05018 16.134 9.23468C16.1251 9.53278 15.9811 9.91858 15.7021 10.3923C15.4342 10.8508 15.0499 11.2527 14.5493 11.598C14.2732 11.7341 13.9627 11.8215 13.618 11.8601C13.2732 11.8987 12.9768 11.8558 12.7288 11.7315C12.4623 11.6639 12.3005 11.7085 12.2433 11.8655C12.1842 12.0093 12.1614 12.3499 12.1752 12.8872C12.1982 13.3961 12.2935 13.7593 12.4612 13.9767C12.6269 14.1809 12.8248 14.2858 13.0549 14.2915C13.3265 14.3044 13.5368 14.3131 13.6858 14.3175C13.846 14.3068 14.0282 14.2186 14.2324 14.0529C14.4235 13.8892 14.5443 13.7968 14.5951 13.7756C14.6438 13.7413 14.6794 13.7089 14.7018 13.6786C14.7354 13.6331 14.8081 13.5344 14.92 13.3827C14.9984 13.2764 15.0609 13.1995 15.1077 13.152C15.1524 13.0913 15.2078 13.056 15.2737 13.046C15.3396 13.0361 15.4039 13.0601 15.4666 13.118C15.5273 13.1628 15.586 13.1944 15.6428 13.2128C15.7746 13.1929 15.8129 13.268 15.7577 13.4381C15.7157 13.6063 15.6062 13.8184 15.4291 14.0744C15.25 14.3172 15.0294 14.5528 14.7672 14.7812ZM14.114 10.5917C14.2491 10.5039 14.3868 10.3887 14.527 10.2462C14.6653 10.0904 14.7762 9.93208 14.8598 9.77108C14.9546 9.59498 14.994 9.45417 14.978 9.34867C14.9501 9.16407 14.8415 9.02547 14.6522 8.93267C14.4609 8.82677 14.2008 8.84577 13.872 8.98987C13.733 9.05137 13.5831 9.17517 13.4224 9.36127C13.2598 9.53417 13.1067 9.72587 12.9632 9.93627C12.8329 10.1448 12.7259 10.3295 12.6424 10.4905C12.572 10.6494 12.552 10.7401 12.5824 10.7625C12.6319 10.8224 12.7519 10.8582 12.9424 10.8699C13.131 10.8684 13.3363 10.8441 13.5585 10.797C13.7938 10.748 13.979 10.6796 14.114 10.5917ZM19.4165 14.2001C19.315 14.2424 19.1786 14.2765 19.0072 14.3024C18.8338 14.3151 18.6792 14.3182 18.5434 14.3118C18.4188 14.2901 18.3535 14.2595 18.3475 14.22C18.3375 14.1541 18.2996 14.1261 18.2337 14.1361C18.2337 14.1361 18.1967 14.1147 18.1229 14.0719C18.0621 14.0271 17.9685 13.9873 17.8419 13.9525C17.6953 13.7859 17.6061 13.5971 17.5742 13.3862C17.5404 13.162 17.5469 12.8037 17.5939 12.3112C17.5836 11.9756 17.6511 11.5743 17.7963 11.1074C17.9527 10.6253 18.1542 10.1296 18.4009 9.62038C18.6476 9.11118 18.9145 8.64607 19.2015 8.22507C19.5017 7.80217 19.7838 7.48307 20.048 7.26787C20.2047 7.05547 20.4138 6.92267 20.6755 6.86967C20.9372 6.81667 21.1967 6.83817 21.4539 6.93407C21.5957 6.98007 21.7435 7.06568 21.8972 7.19078C22.0509 7.31588 22.2001 7.45517 22.3446 7.60857C22.4892 7.76207 22.614 7.91858 22.719 8.07798C22.7804 8.21698 22.8201 8.34587 22.838 8.46447C22.8672 8.56797 22.8871 8.69987 22.8978 8.85997C22.9217 9.01827 22.9378 9.25847 22.946 9.58087C22.916 9.82817 22.9005 10.1272 22.8995 10.4779C22.9118 10.8267 22.9368 11.1263 22.9747 11.3768C22.9861 11.6313 23.0394 11.8053 23.1344 11.8988C23.2427 11.9903 23.3755 11.977 23.5329 11.8588C23.6792 11.7558 23.8258 11.6999 23.9728 11.6912C24.1179 11.6693 24.2359 11.6919 24.3269 11.7591C24.4312 11.8242 24.4953 11.9359 24.5192 12.0941C24.5431 12.2523 24.4889 12.4291 24.3566 12.6244C24.2354 12.8045 24.0718 12.9708 23.8656 13.1233C23.6706 13.2607 23.4742 13.3443 23.2764 13.3741C23.1314 13.3961 22.98 13.3313 22.8223 13.1798C22.6626 13.0152 22.5111 12.8155 22.3678 12.581C22.2356 12.3313 22.1121 12.0937 21.9971 11.8684L21.8098 11.4315L21.0819 12.3707C20.9384 12.5812 20.7929 12.7785 20.6454 12.9626C20.5091 13.1315 20.4262 13.2519 20.3966 13.3238C20.3486 13.4524 20.2413 13.59 20.0747 13.7365C19.9212 13.8811 19.7018 14.0356 19.4165 14.2001ZM19.2996 13.0243C19.5038 12.8586 19.732 12.6286 19.9842 12.3343C20.2344 12.0268 20.475 11.7006 20.706 11.3555C20.9351 10.9973 21.122 10.6724 21.2667 10.3808C21.445 10.0437 21.5736 9.73437 21.6524 9.45277C21.7312 9.17117 21.779 8.90768 21.7959 8.66238C21.7213 8.52538 21.6127 8.38667 21.4701 8.24647C21.3256 8.09297 21.2062 8.01657 21.1119 8.01737C20.8218 8.06118 20.5399 8.29257 20.2661 8.71147C20.0035 9.11527 19.7524 9.55098 19.5129 10.0187C19.4701 10.0926 19.4136 10.2091 19.3432 10.368C19.2728 10.527 19.2015 10.6794 19.1291 10.8251C19.0679 10.9557 19.0271 11.0428 19.0067 11.0863C18.9752 11.1451 18.919 11.3086 18.8382 11.577C18.7685 11.8303 18.6999 12.0901 18.6323 12.3565C18.5627 12.6098 18.5339 12.776 18.5458 12.8551C18.5578 12.9342 18.5773 13.0189 18.6044 13.1091C18.6447 13.1974 18.7196 13.2468 18.8291 13.2572C18.9385 13.2677 19.0954 13.19 19.2996 13.0243ZM30.9975 13.4212C30.8321 13.4866 30.683 13.4822 30.5505 13.4078C30.433 13.3446 30.336 13.2379 30.2594 13.0877C30.1081 12.8004 29.9792 12.4828 29.8727 12.1348C29.7773 11.7716 29.7219 11.4496 29.7065 11.1688L29.6833 10.7475L29.0047 11.4771C28.6162 11.9403 28.2239 12.2895 27.828 12.5246C27.4452 12.7578 27.0956 12.8982 26.7791 12.946C26.6301 12.9416 26.4771 12.9108 26.3202 12.8536C26.1632 12.7964 26.0164 12.7174 25.8798 12.6167C25.7565 12.514 25.6518 12.4017 25.566 12.2798C25.459 12.1072 25.3948 11.8607 25.3734 11.5403C25.3651 11.2179 25.3924 10.8632 25.4553 10.4761C25.5294 10.0739 25.6318 9.68077 25.7626 9.29697C25.9046 8.89787 26.0799 8.54107 26.2885 8.22637C26.624 7.50147 27.0313 7.02857 27.5103 6.80788C27.9894 6.58718 28.4947 6.58497 29.0264 6.80137C29.3911 6.89458 29.612 6.92858 29.6891 6.90348C29.7794 6.87638 29.8356 6.71278 29.8577 6.41278C29.8785 6.19388 29.8994 5.97498 29.9202 5.75608C29.9391 5.52398 29.98 5.21437 30.0429 4.82727C30.2211 3.77557 30.386 2.94827 30.5377 2.34557C30.7025 1.74077 30.8519 1.21258 30.9859 0.760775C31.0851 0.435675 31.1759 0.233173 31.2582 0.153273C31.3517 0.0582733 31.4522 0.00937528 31.5597 0.00657528C31.7047 -0.0153247 31.8445 0.0174746 31.9791 0.105075C32.1137 0.192575 32.2279 0.323674 32.3217 0.498275C32.3924 0.608975 32.4281 0.711473 32.4288 0.805773C32.4408 0.884873 32.4182 1.00287 32.361 1.15987C32.2374 1.50217 32.0968 1.95487 31.9392 2.51807C31.7927 3.06617 31.6477 3.66787 31.504 4.32337C31.3735 4.97687 31.2552 5.62177 31.149 6.25807C31.0429 6.89447 30.9588 7.45327 30.8967 7.93467C30.8614 8.23667 30.8447 8.61677 30.8465 9.07497C30.8615 9.53117 30.885 9.99957 30.9172 10.4802C30.9474 10.9476 30.9837 11.3668 31.0263 11.738C31.0801 12.0939 31.1282 12.3227 31.1705 12.4241C31.2894 12.6759 31.3522 12.8686 31.359 13.0025C31.3789 13.1343 31.3589 13.225 31.2989 13.2745C31.241 13.3372 31.1405 13.3861 30.9975 13.4212ZM27.3237 11.731C27.5023 11.6636 27.6694 11.5642 27.8248 11.4328C27.9934 11.2995 28.1657 11.1454 28.3415 10.9705C28.6912 10.6075 28.9922 10.2788 29.2444 9.98447C29.4966 9.69017 29.63 9.27897 29.6446 8.75087C29.6331 8.49637 29.5768 8.30257 29.4758 8.16957C29.386 8.02127 29.252 7.89317 29.0739 7.78527C28.8998 7.70367 28.6763 7.69707 28.4034 7.76517C28.1417 7.81827 27.8858 7.99848 27.6356 8.30598C27.363 8.64388 27.1119 9.07957 26.8824 9.61317C26.6661 10.1448 26.5392 10.7776 26.5017 11.5114C26.4952 11.6472 26.5507 11.7467 26.6682 11.8099C26.7856 11.873 27.0041 11.8468 27.3237 11.731ZM34.8355 11.9715C34.2895 11.8383 33.9095 11.599 33.6955 11.2538C33.4927 10.8934 33.3777 10.3107 33.3505 9.50568C33.3151 9.09298 33.2874 8.82077 33.2675 8.68887C33.2476 8.55707 33.1552 8.43617 32.9902 8.32627C32.9427 8.27947 32.8592 8.21797 32.7398 8.14157C32.6336 8.06327 32.5821 7.99017 32.5853 7.92217C32.5582 7.83187 32.5499 7.73207 32.5603 7.62257C32.5687 7.49997 32.5993 7.43467 32.652 7.42667C32.7048 7.41867 32.7555 7.39757 32.8043 7.36327C32.8662 7.32687 32.9255 7.31797 32.9823 7.33637C33.035 7.32837 33.0953 7.32597 33.1632 7.32927C33.2311 7.33247 33.2691 7.36047 33.277 7.41317C33.3437 7.49747 33.4314 7.49767 33.5401 7.41387C33.6468 7.31687 33.7461 7.12657 33.8381 6.84297C33.9381 6.61207 34.0776 6.37528 34.2567 6.13248C34.449 5.88768 34.6376 5.66358 34.8226 5.46038C35.0189 5.24188 35.1835 5.08217 35.3166 4.98117C35.3785 4.94487 35.4724 4.89697 35.5983 4.83747C35.7242 4.77797 35.8576 4.72417 35.9986 4.67588C36.1529 4.62558 36.2837 4.59907 36.3912 4.59627C36.6305 4.57367 36.8382 4.60967 37.0143 4.70447C37.2036 4.79717 37.3827 4.91167 37.5517 5.04797C37.741 5.14077 37.8704 5.28307 37.9398 5.47477C38.0224 5.66457 38.0675 5.87358 38.075 6.10168C38.0824 6.32978 38.054 6.54307 37.9896 6.74157C37.97 6.87937 37.8818 7.05457 37.7251 7.26697C37.5684 7.47947 37.3844 7.68927 37.173 7.89657C36.9616 8.10377 36.763 8.26188 36.5772 8.37088C36.4117 8.43638 36.1926 8.50318 35.9197 8.57138C35.66 8.63758 35.4115 8.68857 35.1742 8.72447C34.9481 8.74518 34.7925 8.74167 34.7074 8.71407C34.6072 8.67527 34.5456 8.75877 34.5228 8.96447C34.4999 9.17017 34.5032 9.45957 34.5326 9.83277C34.5501 10.1268 34.5819 10.3377 34.6282 10.4656C34.6745 10.5934 34.7148 10.6817 34.7492 10.7305C34.8554 10.8088 34.9986 10.9086 35.1787 11.0297C35.37 11.1356 35.6103 11.1195 35.8996 10.9814C36.1401 10.8777 36.3581 10.6694 36.5536 10.3567C36.7622 10.042 36.9591 9.78298 37.1441 9.57978C37.1829 9.47948 37.2606 9.41377 37.3773 9.38267C37.5052 9.33637 37.6446 9.32207 37.7956 9.33977C37.9545 9.41007 38.0308 9.51317 38.0243 9.64907C38.0291 9.76967 37.9911 9.96417 37.9103 10.2326C37.8846 10.3309 37.8103 10.4635 37.6872 10.6304C37.5753 10.7822 37.4446 10.9435 37.2951 11.1144C37.1568 11.2702 37.0277 11.3976 36.9078 11.4966C36.5442 11.7673 36.192 11.9351 35.8512 12.0001C35.5084 12.0519 35.1699 12.0424 34.8355 11.9715ZM35.3957 7.78077C35.6758 7.67097 35.8996 7.58998 36.067 7.53778C36.2344 7.48548 36.3882 7.38807 36.5285 7.24557C36.6668 7.08977 36.8277 6.81597 37.0112 6.42417C37.042 6.27117 37.0333 6.12417 36.985 5.98317C36.9499 5.84017 36.902 5.74627 36.8413 5.70147C36.7027 5.58757 36.5518 5.56987 36.3883 5.64857C36.2361 5.71197 36.0954 5.80737 35.9664 5.93477C35.88 5.98828 35.7566 6.10807 35.5959 6.29417C35.4464 6.46507 35.3009 6.66237 35.1594 6.88607C35.0159 7.09647 34.9034 7.28877 34.8218 7.46297C34.7402 7.63707 34.7278 7.73337 34.7845 7.75177C34.7661 7.80847 34.8436 7.83047 35.017 7.81777C35.2036 7.80307 35.3298 7.79077 35.3957 7.78077ZM41.0675 10.8883C41.03 10.9075 40.9631 10.9108 40.8668 10.8984C40.7705 10.886 40.6733 10.867 40.575 10.8414C40.4767 10.8158 40.4124 10.7918 40.3821 10.7694C40.3214 10.7246 40.2567 10.6535 40.188 10.556C40.1325 10.4565 40.1096 10.3049 40.1193 10.1011C40.127 9.88417 40.218 9.59398 40.3923 9.23057C40.4383 9.08877 40.4875 8.87907 40.54 8.60147C40.5924 8.32387 40.6429 8.03308 40.6913 7.72907C40.751 7.40987 40.8025 7.12567 40.8457 6.87637C40.9021 6.62517 40.9431 6.45038 40.9688 6.35218C40.9613 6.12408 40.9242 5.96788 40.8575 5.88347C40.802 5.78397 40.681 5.74157 40.4944 5.75627C40.3626 5.77627 40.2551 5.77897 40.172 5.76457C40.1021 5.74817 40.0493 5.62127 40.0134 5.38397C40.0119 5.19547 40.0391 5.06327 40.0951 4.98737C40.1622 4.89627 40.2547 4.79467 40.3726 4.68247C40.4945 4.59667 40.6194 4.53057 40.7472 4.48427C40.8883 4.43597 41.0257 4.40847 41.1595 4.40177C41.2933 4.39497 41.4058 4.42527 41.4968 4.49237C41.5971 4.53117 41.6743 4.64087 41.7286 4.82147C41.7809 4.98887 41.8209 5.16488 41.8488 5.34938C41.8899 5.53198 41.924 5.66847 41.9511 5.75867C42.067 5.63337 42.2231 5.46137 42.4193 5.24297C42.6268 5.00937 42.8032 4.79397 42.9487 4.59667C43.1377 4.41977 43.3663 4.23688 43.6344 4.04808C43.9006 3.84598 44.0996 3.73508 44.2314 3.71508C44.3764 3.69318 44.5274 3.71087 44.6844 3.76807C44.8394 3.81207 44.9512 3.88277 45.0199 3.98027C45.1856 4.18447 45.2748 4.37328 45.2875 4.54668C45.3134 4.71808 45.2678 4.90697 45.1506 5.11347C45.0447 5.30477 44.8978 5.44837 44.71 5.54417C44.5354 5.63797 44.4217 5.68887 44.369 5.69677C44.2899 5.70877 44.1821 5.66437 44.0455 5.56367C43.9089 5.46287 43.828 5.37397 43.8029 5.29687C43.7969 5.25737 43.7172 5.30988 43.5638 5.45437C43.4215 5.58377 43.2644 5.74907 43.0926 5.95037C42.9187 6.13847 42.7758 6.30837 42.6639 6.46007C42.4816 6.77087 42.3011 7.18237 42.1223 7.69487C41.9435 8.20737 41.7335 8.82567 41.4924 9.54977C41.3839 9.90327 41.3147 10.2037 41.2846 10.451C41.2526 10.6851 41.1802 10.8308 41.0675 10.8883Z" fill="#F67ACB"/>
<path d="M66.9993 10.4434C69.556 9.73663 72.012 9.06843 74.4638 8.39153C74.9532 8.25873 75.2985 8.16453 75.8864 7.89933C76.325 7.70683 77.2467 7.27913 76.9475 6.86553C76.6635 6.55003 76.4201 6.36253 75.5481 6.51283C73.2979 6.91203 71.1187 7.63553 68.9529 8.34193C67.0408 8.96693 65.5919 9.47203 63.9312 10.1223C63.1556 10.4261 63.0315 10.9298 63.4433 11.5524C63.8131 12.111 64.1824 12.691 64.6539 13.1684C66.3442 14.8992 68.0746 16.5787 69.7958 18.2838C70.0083 18.4969 70.1606 18.676 70.4512 18.8933C70.8059 19.1532 71.0488 19.3621 71.3766 19.0758C71.691 18.8066 71.4242 18.3034 71.2381 18.0774C69.7259 16.1545 66.538 12.2404 66.4175 11.9931C67.9169 12.1494 69.3087 12.2631 70.6944 12.4537C80.337 13.8262 89.7823 15.8645 98.5668 20.0927C105.52 23.4395 111.931 27.5464 117.669 32.6355C118.01 32.9338 118.381 33.2066 118.745 33.4622C119.232 33.8159 119.551 33.9137 119.761 33.6745C120.093 33.1749 119.827 32.8508 119.638 32.5737C119.268 32.015 118.77 31.5291 118.29 31.0559C111.797 24.7941 104.122 20.2789 95.7868 16.7501C87.2328 13.1276 78.1637 11.5497 68.9085 10.7273C68.4182 10.7022 67.2146 10.5286 66.9993 10.4434Z" fill="#F67ACB"/>
</svg>
