<svg width="24" height="24" viewBox="0 0 24 24" fill="none" xmlns="http://www.w3.org/2000/svg">
<path d="M19.994 8.00235C19.899 7.65018 19.7136 7.32902 19.4559 7.07082C19.1983 6.81262 18.8776 6.6264 18.5256 6.53068C17.2206 6.17235 11.9998 6.16651 11.9998 6.16651C11.9998 6.16651 6.77979 6.16068 5.47396 6.50318C5.12223 6.6033 4.80214 6.79216 4.54443 7.05162C4.28671 7.31109 4.10003 7.63245 4.00229 7.98485C3.65812 9.28985 3.65479 11.9965 3.65479 11.9965C3.65479 11.9965 3.65146 14.7165 3.99312 16.0082C4.18479 16.7224 4.74729 17.2865 5.46229 17.479C6.78062 17.8374 11.9873 17.8432 11.9873 17.8432C11.9873 17.8432 17.2081 17.849 18.5131 17.5074C18.8652 17.4118 19.1863 17.226 19.4445 16.9683C19.7028 16.7107 19.8893 16.3901 19.9856 16.0382C20.3306 14.734 20.3331 12.0282 20.3331 12.0282C20.3331 12.0282 20.3498 9.30735 19.994 8.00235ZM10.3298 14.504L10.334 9.50401L14.6731 12.0082L10.3298 14.504Z" fill="#F67ACB"/>
</svg>
