<svg width="24" height="24" viewBox="0 0 24 24" fill="none" xmlns="http://www.w3.org/2000/svg">
<path d="M11.9993 8.14746C10.9774 8.14746 9.99726 8.55344 9.27462 9.27608C8.55198 9.99872 8.146 10.9788 8.146 12.0008C8.146 13.0228 8.55198 14.0029 9.27462 14.7255C9.99726 15.4482 10.9774 15.8541 11.9993 15.8541C13.0213 15.8541 14.0015 15.4482 14.7241 14.7255C15.4467 14.0029 15.8527 13.0228 15.8527 12.0008C15.8527 10.9788 15.4467 9.99872 14.7241 9.27608C14.0015 8.55344 13.0213 8.14746 11.9993 8.14746ZM11.9993 14.5033C11.3354 14.5033 10.6987 14.2396 10.2292 13.7701C9.75975 13.3006 9.496 12.6639 9.496 12C9.496 11.336 9.75975 10.6993 10.2292 10.2298C10.6987 9.76037 11.3354 9.49663 11.9993 9.49663C12.6633 9.49663 13.3 9.76037 13.7695 10.2298C14.239 10.6993 14.5027 11.336 14.5027 12C14.5027 12.6639 14.239 13.3006 13.7695 13.7701C13.3 14.2396 12.6633 14.5033 11.9993 14.5033Z" fill="#F67ACB"/>
<path d="M16.0052 8.90421C16.5013 8.90421 16.9035 8.50201 16.9035 8.00588C16.9035 7.50974 16.5013 7.10754 16.0052 7.10754C15.5091 7.10754 15.1069 7.50974 15.1069 8.00588C15.1069 8.50201 15.5091 8.90421 16.0052 8.90421Z" fill="#F67ACB"/>
<path d="M19.1106 7.09248C18.9177 6.5943 18.6229 6.14189 18.2451 5.7642C17.8673 5.38651 17.4147 5.09188 16.9165 4.89915C16.3334 4.68028 15.7175 4.56193 15.0948 4.54915C14.2923 4.51415 14.0381 4.50415 12.0031 4.50415C9.96813 4.50415 9.7073 4.50415 8.91147 4.54915C8.28929 4.56128 7.67376 4.67965 7.09146 4.89915C6.59308 5.09165 6.14043 5.38621 5.76257 5.76392C5.38471 6.14164 5.08999 6.59417 4.89729 7.09248C4.67839 7.67549 4.56031 8.29151 4.54814 8.91415C4.5123 9.71582 4.50146 9.96998 4.50146 12.0058C4.50146 14.0408 4.50147 14.3 4.54814 15.0975C4.56064 15.7208 4.67813 16.3358 4.89729 16.92C5.09053 17.4181 5.38554 17.8705 5.76349 18.2481C6.14144 18.6258 6.59402 18.9205 7.0923 19.1133C7.6735 19.341 8.28928 19.4678 8.91313 19.4883C9.71564 19.5233 9.9698 19.5342 12.0048 19.5342C14.0398 19.5342 14.3006 19.5342 15.0965 19.4883C15.7191 19.4757 16.335 19.3576 16.9181 19.1392C17.4163 18.946 17.8687 18.6511 18.2465 18.2733C18.6242 17.8955 18.9191 17.4431 19.1123 16.945C19.3315 16.3617 19.449 15.7467 19.4615 15.1233C19.4973 14.3217 19.5081 14.0675 19.5081 12.0317C19.5081 9.99582 19.5081 9.73748 19.4615 8.93998C19.4518 8.30854 19.3331 7.68352 19.1106 7.09248ZM18.0956 15.0358C18.0903 15.5161 18.0026 15.9918 17.8365 16.4425C17.7113 16.7665 17.5197 17.0608 17.274 17.3064C17.0283 17.5519 16.7339 17.7434 16.4098 17.8683C15.9642 18.0337 15.4934 18.1214 15.0181 18.1275C14.2265 18.1642 14.0031 18.1733 11.9731 18.1733C9.94146 18.1733 9.73396 18.1733 8.92729 18.1275C8.45223 18.1217 7.98174 18.034 7.53647 17.8683C7.21121 17.7441 6.91563 17.5531 6.66887 17.3075C6.42211 17.0618 6.22965 16.7672 6.10396 16.4425C5.94016 15.9967 5.85256 15.5265 5.84479 15.0517C5.80896 14.26 5.80063 14.0367 5.80063 12.0067C5.80063 9.97582 5.80063 9.76832 5.84479 8.96082C5.85019 8.48084 5.93784 8.00533 6.10396 7.55498C6.35813 6.89748 6.87897 6.37998 7.53647 6.12832C7.98196 5.96343 8.45231 5.87579 8.92729 5.86915C9.71979 5.83332 9.94229 5.82332 11.9731 5.82332C14.004 5.82332 14.2123 5.82332 15.0181 5.86915C15.4935 5.87487 15.9643 5.96254 16.4098 6.12832C16.7339 6.25354 17.0283 6.44515 17.274 6.69084C17.5196 6.93653 17.7113 7.23088 17.8365 7.55498C18.0003 8.00078 18.0879 8.47095 18.0956 8.94582C18.1315 9.73832 18.1406 9.96082 18.1406 11.9917C18.1406 14.0217 18.1406 14.24 18.1048 15.0367L18.0956 15.0358Z" fill="#F67ACB"/>
</svg>
