<svg width="24" height="24" viewBox="0 0 24 24" fill="none" xmlns="http://www.w3.org/2000/svg">
<path d="M6.15244 7.9975C7.15944 7.9975 7.97577 7.18116 7.97577 6.17416C7.97577 5.16716 7.15944 4.35083 6.15244 4.35083C5.14544 4.35083 4.3291 5.16716 4.3291 6.17416C4.3291 7.18116 5.14544 7.9975 6.15244 7.9975Z" fill="#F67ACB"/>
<path d="M9.69744 9.37915V19.495H12.8382V14.4925C12.8382 13.1725 13.0866 11.8942 14.7232 11.8942C16.3374 11.8942 16.3574 13.4033 16.3574 14.5758V19.4958H19.4999V13.9483C19.4999 11.2233 18.9132 9.12915 15.7282 9.12915C14.1991 9.12915 13.1741 9.96832 12.7549 10.7625H12.7124V9.37915H9.69744ZM4.5791 9.37915H7.72494V19.495H4.5791V9.37915Z" fill="#F67ACB"/>
</svg>
