<svg width="115" height="72" viewBox="0 0 115 72" fill="none" xmlns="http://www.w3.org/2000/svg">
<path d="M56.9047 39.825C55.1827 41.8423 53.5225 43.773 51.8712 45.7067C51.5399 46.0909 51.3067 46.3629 50.9686 46.9114C50.7129 47.3165 50.1891 48.1871 50.6691 48.3626C51.0803 48.4647 51.3878 48.4834 52.0257 47.8703C53.6658 46.2791 55.065 44.4586 56.4633 42.6605C57.6967 41.0709 58.614 39.8416 59.6256 38.3718C60.0979 37.6858 59.9186 37.1992 59.2286 36.914C58.6088 36.6587 57.9786 36.3851 57.3198 36.254C54.9502 35.7677 52.5758 35.3452 50.1951 34.8976C49.8995 34.8397 49.6731 34.7775 49.311 34.7603C48.8713 34.7428 48.5524 34.7064 48.4419 35.127C48.3319 35.5265 48.835 35.7938 49.1159 35.8764C51.446 36.6222 56.2792 38.0776 56.5182 38.2156C55.1881 38.9258 53.9721 39.6117 52.7172 40.23C43.9609 44.4956 34.996 48.0999 25.3502 49.5189C17.7162 50.6425 10.1046 50.8328 2.50082 49.8327C2.05169 49.7768 1.59091 49.7587 1.14646 49.7509C0.544916 49.731 0.225107 49.8291 0.18533 50.1442C0.189986 50.7442 0.592789 50.8638 0.905288 50.9871C1.52413 51.243 2.20846 51.3663 2.87173 51.4892C11.7575 53.0377 20.6453 52.4778 29.5255 50.7307C38.6403 48.9381 47.0372 45.164 55.1636 40.6593C55.5838 40.4051 56.6783 39.8748 56.9047 39.825Z" fill="#F67ACB"/>
<path d="M19.5316 13.9969C19.3726 13.9899 19.2426 13.8969 19.1446 13.7189C19.0686 13.6349 19.0206 13.5199 19.0006 13.3719C18.9936 13.2379 19.0516 12.9939 19.1746 12.6389C19.2986 12.2709 19.5046 11.7129 19.7926 10.9659C19.9496 10.4659 20.0726 10.1049 20.1636 9.8819C20.2546 9.6459 20.3026 9.47492 20.3076 9.36792C20.3146 9.22192 20.3326 9.10192 20.3636 9.00992C20.4086 8.90592 20.4336 8.8069 20.4376 8.7139C20.5176 8.7169 20.6016 8.64791 20.6876 8.50492C20.7746 8.36192 20.8506 8.16492 20.9156 7.91492C20.9796 7.69092 21.0346 7.5129 21.0806 7.3819C21.1406 7.2379 21.1716 7.13891 21.1746 7.08591C21.2456 6.98191 21.3196 6.81892 21.3976 6.59592C21.4876 6.37292 21.6196 6.10591 21.7946 5.79291C21.9196 5.39891 22.0586 4.99093 22.2116 4.57093C22.3656 4.13793 22.5176 3.73791 22.6676 3.37091C22.8326 2.99191 22.9666 2.69792 23.0696 2.48892C23.2346 2.08292 23.3616 1.80191 23.4486 1.64591C23.5366 1.47591 23.5416 1.36291 23.4646 1.30591C23.3746 1.23491 23.3596 1.12092 23.4206 0.962923C23.4816 0.805923 23.6356 0.632911 23.8846 0.443911C24.0396 0.277911 24.1716 0.1639 24.2816 0.1019C24.3916 0.0269004 24.5266 -0.00608221 24.6866 0.000917788C24.8596 0.00891779 25.1056 0.0339229 25.4236 0.0749229C25.6626 0.0999229 25.9156 0.117923 26.1816 0.130923C26.4616 0.143923 26.6346 0.151909 26.7016 0.154909C26.8186 0.213909 26.9626 0.279922 27.1326 0.354922C27.3036 0.415922 27.4536 0.476921 27.5846 0.535921C27.7286 0.595921 27.7996 0.645915 27.7976 0.685915C27.7946 0.765915 27.8186 0.820917 27.8706 0.849917C27.9366 0.865917 28.0026 0.881898 28.0686 0.898898C28.1616 0.902898 28.2846 0.981897 28.4376 1.1359C28.5916 1.2769 28.7496 1.45793 28.9136 1.67893C29.0766 1.88693 29.2006 2.10592 29.2826 2.33692C29.3786 2.56792 29.4496 2.78491 29.4936 2.98691C29.5506 3.18991 29.5376 3.47592 29.4536 3.84592C29.4306 4.04492 29.3876 4.24392 29.3256 4.44092C29.2766 4.63892 29.2236 4.76993 29.1676 4.83393C29.0846 4.88393 29.0086 4.9469 28.9386 5.0239C28.8676 5.0999 28.8316 5.17192 28.8276 5.23892C28.8256 5.29192 28.7736 5.39591 28.6736 5.55191C28.5736 5.69391 28.4456 5.8619 28.2896 6.0549C28.1336 6.2479 27.9646 6.4399 27.7826 6.6319C27.5996 6.8239 27.4256 6.9889 27.2586 7.1279C27.0756 7.3329 26.8596 7.52292 26.6116 7.69892C26.3766 7.87492 26.1626 8.01791 25.9706 8.12891C25.6176 8.27291 25.2236 8.4149 24.7896 8.5549C24.3696 8.6959 23.9636 8.8099 23.5726 8.8989C23.1946 8.9879 22.8796 9.01991 22.6276 8.99491C22.2386 9.03091 21.9826 9.07191 21.8606 9.11991C21.7526 9.15491 21.6666 9.26391 21.6046 9.44791C21.5306 9.61791 21.4556 9.79491 21.3806 9.97891C21.3186 10.1489 21.2866 10.2679 21.2836 10.3339C21.2546 10.3869 21.1806 10.5499 21.0606 10.8249C20.9546 11.0869 20.8336 11.3949 20.6976 11.7489C20.5746 12.1029 20.4516 12.4519 20.3286 12.7929C20.2056 13.1339 20.1126 13.4169 20.0486 13.6409C19.9866 13.8249 19.9156 13.9279 19.8346 13.9509C19.7526 13.9869 19.6516 14.0029 19.5316 13.9969ZM22.2966 7.91892C22.3476 7.97492 22.5536 7.9909 22.9156 7.9679C23.2766 7.9439 23.6676 7.86193 24.0876 7.72193C24.3586 7.64093 24.6306 7.53992 24.9026 7.41892C25.1886 7.29892 25.4616 7.16491 25.7226 7.01691C25.8596 6.92991 26.0676 6.77192 26.3446 6.54492C26.6226 6.31792 26.9016 6.0439 27.1836 5.7229C27.2266 5.6579 27.2996 5.53491 27.4016 5.35291C27.5166 5.15791 27.6186 4.97591 27.7066 4.80591C27.8356 4.62491 27.9676 4.35791 28.1046 4.00391C28.2416 3.63691 28.2826 3.3309 28.2266 3.0889C28.1766 2.7389 28.0186 2.4119 27.7526 2.1059C27.4866 1.7859 27.1636 1.56391 26.7816 1.43991C26.4916 1.37291 26.2466 1.3349 26.0466 1.3259C25.8596 1.3169 25.6526 1.32691 25.4246 1.35691C25.2086 1.41391 25.0436 1.49892 24.9316 1.61392C24.8326 1.72992 24.6946 1.9769 24.5166 2.3559C24.4156 2.5379 24.2686 2.81792 24.0776 3.19592C23.8876 3.56093 23.7246 3.90693 23.5886 4.23493C23.3086 5.10293 23.0346 5.81691 22.7686 6.37891C22.5166 6.92791 22.3596 7.27391 22.2996 7.41791C22.3066 7.56591 22.2946 7.67191 22.2656 7.73691C22.2356 7.78891 22.2466 7.84992 22.2966 7.91892ZM29.0556 12.7769C28.9406 12.6789 28.8586 12.5809 28.8096 12.4859C28.7736 12.3909 28.7816 12.2109 28.8346 11.9459C28.8916 11.5749 28.9596 11.2509 29.0396 10.9749C29.1196 10.6849 29.2156 10.3559 29.3256 9.98691C29.3596 9.82791 29.4456 9.55892 29.5836 9.17792C29.7346 8.79792 29.9136 8.38593 30.1216 7.94193C30.3286 7.49693 30.5356 7.07991 30.7406 6.68891C30.9456 6.28491 31.1196 5.9859 31.2626 5.7919C31.3726 5.7169 31.5006 5.6899 31.6466 5.7099C31.8056 5.7309 31.9366 5.7969 32.0376 5.9079C32.1786 6.0349 32.1886 6.2489 32.0676 6.5499C31.9616 6.8389 31.7396 7.2959 31.4036 7.9209C31.2276 8.2729 31.0946 8.54091 31.0066 8.72391C30.9186 8.89291 30.8796 8.99791 30.8916 9.03891C30.9036 9.06591 30.9646 9.04891 31.0736 8.98691C31.1606 8.84391 31.3146 8.68391 31.5366 8.50791C31.7586 8.31791 31.9946 8.1349 32.2426 7.9599C32.4916 7.7849 32.7256 7.62892 32.9456 7.49192C33.1656 7.35492 33.3156 7.26891 33.3976 7.23291C33.5076 7.17091 33.6296 7.12291 33.7646 7.08991C33.9136 7.04291 34.0156 7.00792 34.0696 6.98392C34.3836 6.85092 34.6986 6.81292 35.0166 6.86692C35.3346 6.92192 35.5286 7.05092 35.5996 7.25492C35.6076 7.36192 35.6436 7.44391 35.7076 7.49991C35.7856 7.55691 35.8236 7.58591 35.8236 7.58591C35.8776 7.58791 35.9026 7.6089 35.9016 7.6489C35.9126 7.6899 35.9186 7.7099 35.9186 7.7099C35.9136 7.8029 35.8376 7.85992 35.6906 7.87992C35.5566 7.88692 35.3826 7.89191 35.1686 7.89591C34.9956 7.90091 34.8406 7.92691 34.7046 7.97391C34.5696 8.02091 34.4066 8.07992 34.2156 8.15192C33.6966 8.42092 33.1966 8.6849 32.7176 8.9429C32.2516 9.2019 31.7956 9.55392 31.3476 10.0009C31.2496 10.1029 31.1496 10.2249 31.0496 10.3669C30.9496 10.5099 30.8426 10.6649 30.7276 10.8329C30.6586 10.8959 30.5846 11.0399 30.5076 11.2629C30.4306 11.4859 30.3606 11.7029 30.2976 11.9139C30.2486 12.1119 30.2226 12.2309 30.2206 12.2709C30.2206 12.2709 30.1976 12.3369 30.1516 12.4679C30.1056 12.5859 30.0336 12.7029 29.9356 12.8179C29.7656 13.0239 29.6276 13.1239 29.5206 13.1189C29.4146 13.1139 29.2596 12.9999 29.0556 12.7769ZM37.2356 13.5579C37.0626 13.5499 36.9246 13.5099 36.8206 13.4379C36.7306 13.3669 36.6156 13.2679 36.4746 13.1419C36.2336 12.8639 36.0656 12.6019 35.9696 12.3579C35.8756 12.0999 35.8526 11.8579 35.9036 11.6339C35.9486 11.5289 35.9666 11.4299 35.9576 11.3359C35.9626 11.2289 35.9646 11.1759 35.9646 11.1759C35.9016 11.1059 35.8836 11.0649 35.9106 11.0529C35.9386 11.0279 35.9666 10.9889 35.9956 10.9369C36.0756 10.9409 36.1056 10.8689 36.0856 10.7209C36.0646 10.6129 36.1286 10.3829 36.2786 10.0289C36.4286 9.6759 36.6106 9.34391 36.8246 9.03391C36.9116 8.90391 37.0386 8.73692 37.2086 8.53092C37.3796 8.31192 37.5626 8.09991 37.7586 7.89591C37.9696 7.67891 38.1576 7.50692 38.3236 7.38092C38.6696 7.11692 38.9716 6.92392 39.2306 6.80292C39.4906 6.68092 39.7676 6.59393 40.0636 6.54093C40.3606 6.48793 40.5616 6.4639 40.6676 6.4689C40.7876 6.47491 40.9426 6.58892 41.1326 6.81092C41.4326 6.95792 41.6456 7.12793 41.7696 7.32093C41.9076 7.51393 41.9886 7.79193 42.0116 8.15293C42.0326 8.55493 41.9786 9.01292 41.8476 9.52692C41.7306 10.0289 41.3886 10.6469 40.8206 11.3809C40.4656 11.8449 40.1426 12.1909 39.8516 12.4179C39.5616 12.6309 39.2176 12.8419 38.8206 13.0509C38.5326 13.2239 38.2726 13.3519 38.0426 13.4349C37.8126 13.5039 37.5436 13.5449 37.2356 13.5579ZM39.2516 11.5289C39.5886 11.1839 39.8576 10.8559 40.0586 10.5449C40.2726 10.2349 40.4786 9.8369 40.6746 9.3519C40.7346 9.2079 40.7766 9.0299 40.7996 8.8179C40.8236 8.5919 40.8256 8.3849 40.8086 8.1969C40.8036 7.9969 40.7626 7.88192 40.6836 7.85092C40.5286 7.75092 40.3366 7.7149 40.1086 7.7439C39.8806 7.7609 39.6286 7.87591 39.3516 8.08991C38.9226 8.41691 38.5426 8.83292 38.2126 9.33792C37.8826 9.82992 37.5556 10.3959 37.2326 11.0349C37.0106 11.5049 36.9466 11.8889 37.0386 12.1869C37.1456 12.4719 37.3876 12.5839 37.7646 12.5209C38.1546 12.4459 38.6506 12.1149 39.2516 11.5289ZM48.0106 14.1579C47.9566 14.1549 47.8776 14.1449 47.7716 14.1269C47.6796 14.0959 47.6026 14.0319 47.5396 13.9359C47.3516 13.6869 47.2346 13.4809 47.1886 13.3189C47.1426 13.1559 47.1466 12.9229 47.2006 12.6189C47.2366 12.4199 47.2576 12.2469 47.2646 12.1009C47.2856 11.9419 47.3046 11.8089 47.3236 11.7029C47.2726 11.6479 47.1706 11.6829 47.0186 11.8089C46.8796 11.9229 46.6856 12.0669 46.4376 12.2429C45.9606 12.7409 45.5356 13.1219 45.1626 13.3849C44.8046 13.6349 44.4826 13.7999 44.1986 13.8809C43.9156 13.9479 43.6476 13.9619 43.3966 13.9239C43.1706 13.8859 42.9956 13.7849 42.8696 13.6189C42.7446 13.4399 42.6686 13.2159 42.6406 12.9469C42.6266 12.6799 42.6396 12.3939 42.6806 12.0879C42.7546 11.6509 42.8666 11.2359 43.0186 10.8429C43.1836 10.4499 43.4376 10.0149 43.7796 9.5369C43.9386 9.2769 44.1436 9.02591 44.3956 8.78391C44.6606 8.52991 44.9446 8.30893 45.2466 8.12293C45.5636 7.92393 45.8636 7.78492 46.1476 7.70392C46.4596 7.59892 46.7756 7.54692 47.0956 7.54791C47.4166 7.53591 47.7016 7.57591 47.9516 7.66791C48.1076 7.75491 48.2316 7.80091 48.3256 7.80591C48.4316 7.80991 48.5146 7.74792 48.5746 7.61692C48.6456 7.51292 48.7196 7.35691 48.7966 7.14691C48.8736 6.92291 48.9626 6.73391 49.0626 6.57791L49.5626 5.2999C49.7256 4.9469 49.9036 4.5749 50.0946 4.1839C50.2866 3.7919 50.5156 3.31591 50.7816 2.75391C51.0286 2.33791 51.2256 2.10093 51.3756 2.04093C51.5256 1.96793 51.6896 2.02891 51.8676 2.22391C52.0066 2.40391 52.0506 2.6059 51.9996 2.8309C51.9496 3.0419 51.8136 3.38291 51.5916 3.85291C51.4916 3.99491 51.4056 4.1309 51.3326 4.2609C51.2606 4.3779 51.1586 4.56691 51.0266 4.82791C50.8336 5.23191 50.6566 5.59792 50.4946 5.92392C50.3336 6.23692 50.1636 6.59592 49.9846 7.00192C49.9206 7.21193 49.8366 7.4549 49.7306 7.7309C49.6376 8.0069 49.5586 8.25692 49.4946 8.47992C49.4456 8.69192 49.3896 8.88891 49.3276 9.07291C49.2796 9.24491 49.2286 9.32891 49.1756 9.32691C49.0636 9.44191 48.9536 9.64991 48.8466 9.95191C48.7396 10.2409 48.6456 10.5429 48.5636 10.8599C48.4956 11.1769 48.4366 11.4409 48.3866 11.6529C48.3526 11.8109 48.3236 12.0169 48.2986 12.2689C48.2726 12.5219 48.2546 12.7679 48.2436 13.0069C48.2336 13.2339 48.2256 13.3939 48.2216 13.4869C48.2076 13.7799 48.1926 13.9659 48.1756 14.0449C48.1586 14.1249 48.1036 14.1619 48.0106 14.1579ZM43.8136 12.7019C44.0926 12.7149 44.3916 12.6079 44.7086 12.3829C45.0396 12.1579 45.3716 11.9059 45.7046 11.6279C45.9136 11.4509 46.1376 11.2139 46.3786 10.9189C46.6326 10.6229 46.8736 10.3279 47.1006 10.0309C47.3416 9.73492 47.5336 9.4769 47.6776 9.2569C47.8216 9.0229 47.8946 8.87991 47.8976 8.82691C47.9006 8.75991 47.8426 8.71093 47.7236 8.67893C47.6056 8.64593 47.4666 8.6269 47.3066 8.6189C47.1606 8.5989 47.0406 8.59992 46.9456 8.62192C46.6496 8.67492 46.3506 8.7949 46.0486 8.9809C45.7596 9.1679 45.4386 9.45292 45.0876 9.83792C44.7216 10.2479 44.4146 10.6739 44.1676 11.1159C43.9326 11.5589 43.7826 11.9329 43.7146 12.2369C43.6476 12.5399 43.6796 12.6949 43.8136 12.7019ZM55.4266 14.6619C55.3306 14.7109 55.2056 14.6849 55.0496 14.5849C54.9076 14.4849 54.7676 14.3379 54.6296 14.1449C54.5436 13.9799 54.4856 13.8039 54.4536 13.6159C54.4356 13.4279 54.4346 13.1679 54.4506 12.8349C54.4756 12.5689 54.4706 12.3949 54.4346 12.3139C54.4116 12.2319 54.3376 12.2419 54.2126 12.3429C54.0886 12.4309 53.8726 12.6149 53.5666 12.8939C53.2176 13.2119 52.8866 13.4559 52.5716 13.6289C52.2696 13.8019 52.0256 13.8769 51.8396 13.8549C51.7466 13.8509 51.6426 13.7989 51.5266 13.6999C51.4256 13.5889 51.3316 13.4579 51.2446 13.3069C51.1586 13.1429 51.0866 12.9789 51.0276 12.8159C50.9606 12.5189 50.9646 12.1459 51.0396 11.6959C51.1276 11.2319 51.2566 10.7509 51.4266 10.2519C51.5966 9.75292 51.7856 9.28092 51.9926 8.83692C52.2136 8.39292 52.4306 8.0359 52.6436 7.7659C52.8696 7.4959 53.0626 7.36492 53.2216 7.37192C53.3286 7.37692 53.4196 7.43492 53.4946 7.54492C53.5826 7.65592 53.6686 7.82692 53.7506 8.05692C53.7996 8.15292 53.8156 8.2339 53.7996 8.2999C53.7966 8.3659 53.7396 8.44392 53.6286 8.53192C53.5016 8.68592 53.3506 8.9199 53.1756 9.2319C53.0146 9.5449 52.8516 9.88391 52.6876 10.2499C52.5376 10.6169 52.4006 10.9709 52.2786 11.3129C52.1556 11.6539 52.0696 11.9369 52.0186 12.1609C51.9686 12.3729 51.9706 12.4799 52.0236 12.4819C52.2106 12.4909 52.4336 12.4279 52.6936 12.2929C52.9676 12.1449 53.2296 11.9639 53.4796 11.7489C53.7716 11.4819 54.0326 11.1869 54.2616 10.8639C54.5036 10.5419 54.7456 10.1989 54.9896 9.83692C55.1756 9.57792 55.3686 9.29391 55.5696 8.98291C55.7846 8.67191 55.9216 8.45192 55.9806 8.32092C56.1836 7.98292 56.3346 7.7569 56.4326 7.6409C56.5326 7.5119 56.6496 7.43091 56.7846 7.39691C56.8516 7.39991 56.9116 7.40292 56.9646 7.40592C57.0316 7.40892 57.0646 7.40991 57.0646 7.40991C57.1436 7.42691 57.2346 7.49191 57.3356 7.60291C57.4396 7.66091 57.4976 7.71691 57.5086 7.77091C57.5196 7.81191 57.5236 7.86492 57.5206 7.93192C57.4616 8.06292 57.3656 8.25792 57.2336 8.51892C57.1146 8.76692 57.0266 8.9499 56.9676 9.0679C56.6876 9.6289 56.4086 10.1829 56.1296 10.7309C55.8646 11.2649 55.6656 11.8169 55.5326 12.3849C55.4966 12.5699 55.4796 12.7889 55.4816 13.0429C55.4966 13.2839 55.5286 13.4589 55.5776 13.5679C55.6136 13.6499 55.6556 13.7449 55.7046 13.8539C55.7666 13.9499 55.8356 14.0339 55.9126 14.1039C56.0286 14.1899 56.0446 14.2769 55.9606 14.3669C55.8896 14.4569 55.7926 14.5319 55.6696 14.5929C55.5476 14.6409 55.4666 14.6639 55.4266 14.6619ZM61.0246 14.4409C60.8486 14.5129 60.6466 14.5369 60.4206 14.5139C60.1956 14.4899 59.8926 14.4019 59.5126 14.2509C59.4856 14.2499 59.4266 14.2199 59.3366 14.1629C59.2586 14.1059 59.1756 14.0349 59.0856 13.9509C59.0096 13.8539 58.9486 13.7509 58.8996 13.6419C58.7006 13.3259 58.6356 12.8689 58.7036 12.2709C58.7706 11.6739 58.9906 10.9629 59.3626 10.1399C59.4656 9.94392 59.6166 9.6979 59.8176 9.3999C60.0316 9.1029 60.2376 8.83192 60.4356 8.58792C60.6476 8.33092 60.7946 8.18392 60.8766 8.14792C60.8766 8.14792 60.9516 8.12491 61.1006 8.07791C61.2496 8.03191 61.4396 7.95391 61.6716 7.8439C61.7396 7.82091 61.8136 7.7979 61.8946 7.7749C61.9896 7.7519 62.0836 7.73691 62.1776 7.72791C62.2716 7.71891 62.3516 7.72192 62.4176 7.73892C62.6826 7.76392 62.9516 7.87691 63.2226 8.07691C63.5076 8.26291 63.7376 8.48091 63.9126 8.72891C64.0886 8.96391 64.1396 9.16692 64.0646 9.33692C64.0636 9.36392 64.0216 9.41491 63.9376 9.49091C63.8676 9.55491 63.7846 9.62392 63.6876 9.69992C63.6046 9.76292 63.5346 9.82592 63.4786 9.88993C63.4086 9.96692 63.3136 9.9959 63.1946 9.9769C63.0886 9.9589 62.9906 9.90093 62.9016 9.80393C62.8276 9.69293 62.7866 9.55791 62.7806 9.39691C62.7586 9.28991 62.6636 9.18493 62.4946 9.08393C62.3396 8.98293 62.2616 8.93292 62.2616 8.93292C62.1556 8.92792 61.9976 9.02091 61.7886 9.21091C61.5936 9.38891 61.3966 9.6069 61.1976 9.8649C60.9466 10.0929 60.7266 10.3699 60.5386 10.6949C60.3506 11.0059 60.1966 11.3059 60.0756 11.5939C59.9696 11.8699 59.8936 12.0659 59.8486 12.1839C59.7886 12.3149 59.7736 12.5009 59.8026 12.7429C59.8316 12.9849 59.8716 13.1329 59.9216 13.1889C59.9736 13.2179 60.1066 13.2309 60.3206 13.2279C60.5476 13.2249 60.8156 13.2099 61.1236 13.1849C61.4326 13.1459 61.7346 13.0999 62.0306 13.0469C62.3266 12.9939 62.5696 12.9309 62.7606 12.8599C63.0206 12.7119 63.2446 12.6289 63.4326 12.6109C63.6206 12.5929 63.7596 12.5999 63.8516 12.6309C63.9956 12.6909 64.0796 12.7679 64.1016 12.8619C64.1236 12.9569 64.0856 13.0619 63.9866 13.1769C63.8886 13.2799 63.7236 13.3849 63.4916 13.4949C63.2736 13.5909 63.0746 13.7019 62.8956 13.8279C62.7306 13.9399 62.6456 14.0299 62.6426 14.0959C62.5896 14.0939 62.5286 14.1109 62.4606 14.1479C62.4056 14.1719 62.3586 14.1759 62.3196 14.1609C62.2926 14.1599 62.1856 14.1749 61.9966 14.2059C61.8086 14.2379 61.6136 14.2749 61.4116 14.3189C61.2226 14.3639 61.0936 14.4049 61.0246 14.4409ZM67.1616 15.1069C67.0166 15.0729 66.8666 14.9929 66.7126 14.8659C66.5716 14.7259 66.4456 14.5729 66.3336 14.4079C66.2346 14.2289 66.1686 14.0729 66.1346 13.9379C66.1356 13.9109 66.1176 13.8769 66.0796 13.8349C66.0546 13.7939 66.0426 13.7729 66.0426 13.7729C65.9906 13.7309 65.9656 13.5559 65.9666 13.2489C65.9816 12.9299 66.0176 12.5779 66.0756 12.1929C66.1336 11.8089 66.1946 11.5049 66.2586 11.2809C66.3346 11.0709 66.4476 10.7889 66.5976 10.4359C66.7486 10.0689 66.8766 9.74091 66.9836 9.45191L67.5766 8.31891L66.7876 8.06192C66.6956 8.03092 66.6186 7.9739 66.5556 7.8909C66.5056 7.8079 66.4826 7.74092 66.4846 7.68692C66.4896 7.58092 66.5556 7.45692 66.6826 7.31592C66.8096 7.16192 66.8996 7.08592 66.9536 7.08792C67.0196 7.10492 67.1386 7.11691 67.3116 7.12491C67.4986 7.13391 67.6786 7.13492 67.8526 7.12992C68.0256 7.12492 68.1336 7.11592 68.1736 7.10492C68.2286 7.08092 68.2836 7.04991 68.3386 7.01291C68.3936 6.96191 68.4376 6.88991 68.4686 6.79791C68.5416 6.65491 68.6076 6.52492 68.6666 6.40692C68.7266 6.27592 68.8066 6.13291 68.9066 5.97791C69.0086 5.80891 69.0886 5.66592 69.1466 5.54791C69.2196 5.43191 69.3266 5.2699 69.4696 5.0629C69.5406 4.9729 69.6196 4.86291 69.7056 4.73291C69.7916 4.60391 69.8966 4.4949 70.0206 4.4079C70.1456 4.3069 70.2676 4.26591 70.3866 4.28491C70.5206 4.29091 70.6826 4.3849 70.8746 4.5679C70.9746 4.7059 71.0296 4.80792 71.0406 4.87592C71.0506 4.94292 70.9916 5.06693 70.8626 5.24793C70.7456 5.46893 70.6086 5.68991 70.4516 5.90891C70.3076 6.12991 70.1706 6.34993 70.0406 6.57093C69.8136 6.85393 69.7666 7.01891 69.8976 7.06491C70.0286 7.11091 70.4026 7.1019 71.0196 7.0369C71.4096 6.9879 71.6886 7.0209 71.8566 7.1359C72.0256 7.2369 72.1176 7.40191 72.1336 7.62891C72.1586 7.95091 72.1166 8.14192 72.0066 8.20392C71.8976 8.26592 71.5896 8.2849 71.0836 8.2609C70.7616 8.2999 70.4866 8.31991 70.2596 8.32291C70.0336 8.31291 69.8666 8.3049 69.7606 8.2999C69.5866 8.3049 69.4726 8.30693 69.4196 8.30393C69.3666 8.30193 69.2856 8.31092 69.1776 8.33292C69.0706 8.35492 68.9876 8.39792 68.9316 8.46192C68.8896 8.51292 68.8386 8.59092 68.7806 8.69492C68.7246 8.74592 68.6386 8.88191 68.5216 9.10291C68.4046 9.32491 68.2596 9.56492 68.0876 9.82392C67.8756 10.3749 67.6896 10.9269 67.5306 11.4799C67.3716 12.0199 67.2406 12.5479 67.1366 13.0629C67.0676 13.3939 67.0636 13.6269 67.1236 13.7639C67.1846 13.8859 67.3546 13.9679 67.6336 14.0069C67.7786 14.0279 68.0126 14.0379 68.3326 14.0399C68.6666 14.0289 68.9286 14.0009 69.1176 13.9559C69.2666 13.8959 69.4226 13.8369 69.5856 13.7779C69.7496 13.7049 69.8996 13.6319 70.0366 13.5579C70.1596 13.4969 70.2826 13.4359 70.4056 13.3749C70.5286 13.3009 70.5906 13.2639 70.5906 13.2639C70.6626 13.1599 70.7376 13.1299 70.8156 13.1739C70.8936 13.2179 70.9556 13.3209 71.0016 13.4829C70.9936 13.6429 70.9526 13.8079 70.8776 13.9779C70.8036 14.1479 70.5476 14.3429 70.1106 14.5629C69.4936 14.9079 68.9306 15.1089 68.4206 15.1649C67.9246 15.2089 67.5046 15.1889 67.1616 15.1069ZM77.4546 14.7439C77.4016 14.7409 77.3356 14.7249 77.2566 14.6939C77.1916 14.6509 77.1596 14.6299 77.1596 14.6299C77.1616 14.5759 77.1446 14.5089 77.1086 14.4269C77.0856 14.3459 77.0756 14.2789 77.0776 14.2259C76.9876 14.1679 76.9366 14.1119 76.9256 14.0579C76.9156 13.9909 76.9406 13.8849 77.0006 13.7409C77.0866 13.6119 77.2026 13.4039 77.3496 13.1169C77.4976 12.8169 77.6526 12.4969 77.8146 12.1569C77.9776 11.8049 78.1346 11.4579 78.2836 11.1179C78.4326 10.7779 78.5596 10.4899 78.6636 10.2549C78.7686 10.0059 78.8296 9.85492 78.8446 9.80292C78.8476 9.74892 78.8706 9.6839 78.9146 9.6059C78.9576 9.5279 79.0076 9.4629 79.0636 9.4119C79.1746 9.3239 79.2876 9.3229 79.4036 9.4079C79.5206 9.4799 79.6146 9.60492 79.6866 9.78192C79.7726 9.94592 79.8106 10.1279 79.8016 10.3279C79.7976 10.4209 79.7196 10.6569 79.5686 11.0379C79.4176 11.4039 79.2176 11.8419 78.9666 12.3509C78.7296 12.8609 78.4656 13.3759 78.1746 13.8959C77.9566 14.2729 77.8186 14.5139 77.7606 14.6179C77.7026 14.7079 77.6006 14.7499 77.4546 14.7439ZM80.7426 7.30792C80.5826 7.30092 80.4126 7.23291 80.2316 7.10391C80.0646 6.96291 79.9186 6.79591 79.7946 6.60291C79.6836 6.39791 79.6336 6.19491 79.6426 5.99591C79.6456 5.92891 79.6896 5.83792 79.7756 5.72092C79.8606 5.60492 79.9466 5.48893 80.0316 5.37293C80.1176 5.25693 80.1606 5.18491 80.1616 5.15891C80.2686 5.16391 80.3476 5.17391 80.4006 5.18991C80.4676 5.19291 80.5456 5.22292 80.6366 5.28092C80.7676 5.62092 80.9346 5.90191 81.1376 6.12491C81.3546 6.34891 81.4596 6.5339 81.4526 6.6799C81.4386 6.9729 81.4036 7.1579 81.3466 7.2359C81.2906 7.2999 81.0886 7.32392 80.7426 7.30792ZM81.3496 15.1649C81.3126 15.1089 81.2756 15.0409 81.2386 14.9589C81.2156 14.8779 81.2056 14.8109 81.2086 14.7579C81.2096 14.7309 81.2046 14.6969 81.1926 14.6569C81.1946 14.6169 81.1696 14.5959 81.1156 14.5929C81.0776 14.5509 81.1116 14.3989 81.2166 14.1369C81.3366 13.8629 81.4846 13.5489 81.6616 13.1969C81.8506 12.8449 82.0406 12.5069 82.2286 12.1819C82.4316 11.8439 82.5976 11.5789 82.7266 11.3839C82.7946 11.3469 82.8376 11.2959 82.8536 11.2299C82.8836 11.1509 82.8856 11.1109 82.8596 11.1099C82.8596 11.1099 82.8956 11.0519 82.9676 10.9349C83.0536 10.8059 83.1176 10.7219 83.1596 10.6839C83.2746 10.5019 83.3626 10.3189 83.4246 10.1349C83.4876 9.93792 83.5086 9.77191 83.4886 9.63791C83.4376 9.56891 83.3786 9.54592 83.3116 9.56992C83.2436 9.59292 83.2096 9.60492 83.2096 9.60492C83.1556 9.61592 83.0746 9.63892 82.9656 9.67392C82.8716 9.69592 82.7826 9.73192 82.7006 9.78092C82.3846 9.97992 82.1736 10.0709 82.0676 10.0519C81.9616 10.0209 81.8506 9.8419 81.7316 9.5159C81.6856 9.3669 81.6706 9.25991 81.6866 9.19391C81.7036 9.12791 81.7596 9.0569 81.8566 8.9809C81.9676 8.8929 82.0706 8.83792 82.1646 8.81592C82.2596 8.77992 82.3346 8.7429 82.3906 8.7059C82.5406 8.6189 82.6636 8.55792 82.7586 8.52292C82.8676 8.48792 82.9486 8.46492 83.0026 8.45392C83.3536 8.36392 83.6476 8.35691 83.8846 8.43491C84.1206 8.51291 84.2926 8.69391 84.3996 8.97891C84.5756 9.21391 84.6566 9.47791 84.6436 9.77091C84.6306 10.0509 84.5216 10.3729 84.3176 10.7369L84.1046 11.0279C84.0316 11.1579 84.0156 11.2239 84.0556 11.2259C84.1086 11.2279 84.1706 11.1839 84.2416 11.0939C84.2836 11.0429 84.3676 10.9669 84.4926 10.8659C84.6176 10.7649 84.6996 10.7149 84.7396 10.7169C84.7396 10.7169 84.7526 10.7109 84.7806 10.6989C84.8206 10.6869 84.8436 10.6349 84.8476 10.5419C84.8896 10.5039 84.9316 10.4659 84.9736 10.4269C85.0286 10.3899 85.0556 10.3709 85.0556 10.3709C85.1096 10.3739 85.2116 10.3179 85.3636 10.2049C85.5296 10.0799 85.7236 9.93491 85.9446 9.77191C86.0956 9.67191 86.2316 9.62492 86.3516 9.63092C86.6626 9.55192 86.9036 9.66291 87.0766 9.96491C87.2626 10.2669 87.3456 10.6509 87.3236 11.1169L86.8536 12.1769L87.6136 11.3309C87.6986 11.2279 87.7836 11.1389 87.8666 11.0619C87.9636 10.9869 88.0466 10.9239 88.1156 10.8739C88.1466 10.7819 88.1896 10.7299 88.2436 10.7189C88.2966 10.7089 88.3236 10.7029 88.3236 10.7029C88.3236 10.7029 88.3376 10.7039 88.3636 10.7049C88.3916 10.6929 88.4056 10.6669 88.4076 10.6269C88.4766 10.5769 88.5516 10.5339 88.6336 10.4969C88.7166 10.4479 88.7716 10.3969 88.8006 10.3449C89.0316 10.2619 89.2386 10.2579 89.4226 10.3339C89.6066 10.3959 89.7586 10.5689 89.8786 10.8549C89.9646 11.0199 90.0116 11.1619 90.0186 11.2819C90.0266 11.4029 90.0246 11.5829 90.0136 11.8229C89.9776 12.0209 89.9436 12.1799 89.9116 12.2979C89.8936 12.4039 89.8746 12.5169 89.8556 12.6359C89.8366 12.7559 89.8096 12.9209 89.7726 13.1329C89.7146 13.2369 89.6756 13.3489 89.6576 13.4679C89.6516 13.5879 89.6466 13.7009 89.6416 13.8079C89.6336 13.9809 89.6346 14.1009 89.6446 14.1679C89.6556 14.2219 89.7076 14.2509 89.8006 14.2549C89.9896 14.2239 90.2466 14.1429 90.5726 14.0109C90.9136 13.8669 91.1666 13.7249 91.3336 13.5859C91.5416 13.4089 91.7196 13.3229 91.8656 13.3299C92.0266 13.3239 92.1226 13.4019 92.1556 13.5639C92.1796 13.6179 92.1276 13.7359 91.9986 13.9169C91.8836 14.0989 91.7486 14.2719 91.5946 14.4389C91.4526 14.6059 91.3496 14.6879 91.2826 14.6849C91.2426 14.6829 91.1946 14.7209 91.1376 14.7979C91.0806 14.8619 91.0186 14.9129 90.9496 14.9489C90.8526 15.0379 90.7546 15.1209 90.6586 15.1959C90.5746 15.2719 90.4796 15.3079 90.3726 15.3029C90.3196 15.3009 90.2516 15.3169 90.1706 15.3539C90.1026 15.3769 90.0216 15.3869 89.9286 15.3829C89.7936 15.4159 89.5886 15.3869 89.3126 15.2939C89.0496 15.2019 88.8846 15.0069 88.8186 14.7099C88.7726 14.5609 88.7366 14.3259 88.7116 14.0049C88.6866 13.6699 88.7086 13.3369 88.7776 13.0069C88.8416 12.7689 88.8856 12.5509 88.9086 12.3519C88.9306 12.1529 88.9636 12.0139 89.0076 11.9359C89.0096 11.8959 89.0136 11.8029 89.0206 11.6559C89.0276 11.4969 89.0116 11.4159 88.9716 11.4139C88.9186 11.4109 88.7876 11.5049 88.5786 11.6959C88.3826 11.8739 88.1456 12.1029 87.8656 12.3839C87.5986 12.6649 87.3316 12.9599 87.0636 13.2669C86.7956 13.5749 86.5756 13.8519 86.4046 14.0979C86.2776 14.2389 86.1626 14.4139 86.0596 14.6219C85.9566 14.8309 85.8846 14.9479 85.8436 14.9729C85.7456 15.0749 85.6316 15.0829 85.5016 14.9969C85.3856 14.9109 85.2786 14.7799 85.1796 14.6019C85.1436 14.5199 85.1196 14.4519 85.1096 14.3979C85.0986 14.3309 85.1026 14.2439 85.1216 14.1379C85.1536 14.0199 85.2086 13.8489 85.2856 13.6249C85.3756 13.4029 85.4966 13.0879 85.6496 12.6809C85.8166 12.2349 85.9626 11.8349 86.0856 11.4799C86.2226 11.1129 86.2916 10.9289 86.2916 10.9289C86.2936 10.8759 86.1916 10.9249 85.9846 11.0749C85.7776 11.2119 85.5356 11.3879 85.2586 11.6019C85.1326 11.7429 84.9226 11.9529 84.6286 12.2329C84.3356 12.5139 84.0136 12.8319 83.6636 13.1899C83.3136 13.5469 82.9756 13.9249 82.6496 14.3239C82.2386 14.8519 81.9496 15.1719 81.7846 15.2849C81.6326 15.3979 81.4876 15.3579 81.3496 15.1649ZM93.1616 15.7329C93.1136 15.6239 93.0506 15.5409 92.9736 15.4839C92.8966 15.4139 92.8596 15.3519 92.8616 15.2979C92.8646 15.2449 92.8606 15.1919 92.8496 15.1379C92.8526 15.0709 92.8286 15.0099 92.7776 14.9539C92.7146 14.8709 92.7296 14.6919 92.8226 14.4159C92.9166 14.1259 93.0656 13.7799 93.2716 13.3749C93.4776 12.9579 93.7186 12.5219 93.9926 12.0669C94.1046 11.9659 94.2176 11.8309 94.3316 11.6629C94.4466 11.4949 94.5316 11.3849 94.5876 11.3339C94.5896 11.2809 94.6126 11.2349 94.6536 11.1969C94.6966 11.1459 94.7446 11.1209 94.7976 11.1239L94.8026 11.0039C94.8066 10.9369 94.8716 10.8269 94.9986 10.6729C95.1396 10.5189 95.3076 10.3529 95.5026 10.1749C95.6976 9.9839 95.8996 9.80692 96.1076 9.64292C96.3156 9.46592 96.4886 9.3399 96.6256 9.2659C96.9136 9.0929 97.2056 8.99292 97.5006 8.96692C97.8086 8.94092 98.0656 9.01991 98.2706 9.20291C98.3086 9.24391 98.3716 9.3139 98.4606 9.4119C98.5496 9.5089 98.6516 9.62091 98.7656 9.74591C98.8936 9.85891 99.0216 9.97791 99.1496 10.1039L99.8576 10.7979L99.4516 11.7799C99.2546 12.3049 99.1856 12.7689 99.2476 13.1719C99.3216 13.5759 99.4396 13.9289 99.5986 14.2299C99.6586 14.3789 99.7856 14.5249 99.9786 14.6679C100.186 14.8109 100.382 14.8999 100.567 14.9349C100.673 14.9539 100.771 14.9979 100.862 15.0689C100.952 15.1399 100.993 15.2489 100.987 15.3949C100.98 15.5279 100.949 15.6339 100.892 15.7109C100.835 15.7889 100.739 15.8379 100.605 15.8579C100.163 15.8909 99.7546 15.7649 99.3806 15.4809C99.0196 15.1969 98.6936 14.7419 98.4026 14.1139C98.3536 14.0319 98.2866 13.8819 98.2036 13.6639C98.1336 13.4339 98.0946 13.2859 98.0836 13.2179C98.0276 13.2819 97.9216 13.4039 97.7666 13.5839C97.6116 13.7499 97.4926 13.8719 97.4096 13.9479C96.4196 14.8629 95.5706 15.4709 94.8616 15.7719C94.1676 16.0599 93.6016 16.0469 93.1616 15.7329ZM93.9336 14.6469C93.9286 14.7409 94.0686 14.7469 94.3526 14.6669C94.6506 14.5739 94.9726 14.4019 95.3176 14.1509C95.7886 13.7859 96.2616 13.3809 96.7356 12.9359C97.2236 12.4909 97.6166 12.0749 97.9146 11.6889L98.3876 10.9899C98.2686 10.6779 98.1316 10.4639 97.9766 10.3499C97.8356 10.2239 97.7116 10.1579 97.6056 10.1529C97.4326 10.1449 97.1656 10.2929 96.8046 10.5959C96.4566 10.8999 96.0766 11.3099 95.6656 11.8249C95.2546 12.3399 94.8616 12.9089 94.4856 13.5319C94.3396 13.7919 94.2076 14.0459 94.0896 14.2939C93.9856 14.5299 93.9336 14.6469 93.9336 14.6469ZM103.991 20.7799C103.733 20.8749 103.451 20.8949 103.147 20.8409C102.855 20.8009 102.566 20.7009 102.28 20.5409C102.007 20.3809 101.762 20.1899 101.546 19.9659C101.457 19.8689 101.364 19.7169 101.266 19.5129C101.182 19.3219 101.117 19.1389 101.072 18.9629C101.04 18.7879 101.051 18.6879 101.106 18.6639C101.161 18.6269 101.235 18.6169 101.327 18.6349C101.42 18.6519 101.505 18.6759 101.584 18.7069C101.675 18.7509 101.72 18.7999 101.717 18.8529C101.794 18.9229 101.93 19.0299 102.123 19.1719C102.316 19.3279 102.465 19.4209 102.571 19.4529C102.846 19.5589 103.051 19.6089 103.184 19.6019C103.318 19.5949 103.44 19.5529 103.55 19.4789C103.772 19.3019 103.949 19.0829 104.081 18.8219C104.214 18.5619 104.357 18.2009 104.512 17.7409L104.584 17.4839C104.713 16.9959 104.858 16.4759 105.017 15.9229C105.176 15.3689 105.31 14.9349 105.418 14.6199C105.499 14.3169 105.528 14.1109 105.506 14.0029C105.498 13.8959 105.437 13.9129 105.324 14.0549C105.27 14.0659 105.195 14.0889 105.1 14.1249C105.019 14.1609 104.923 14.2029 104.814 14.2509C104.651 14.3239 104.487 14.3959 104.324 14.4689C104.161 14.5279 104.025 14.5689 103.917 14.5899C103.811 14.5849 103.711 14.5869 103.617 14.5959C103.524 14.5919 103.477 14.5899 103.477 14.5899C103.367 14.6519 103.175 14.6359 102.899 14.5429C102.637 14.4369 102.403 14.2929 102.198 14.1099C102.085 13.9449 102.004 13.8209 101.955 13.7379C101.906 13.6429 101.877 13.5479 101.868 13.4539C101.86 13.3469 101.86 13.1869 101.87 12.9739C101.867 12.7599 101.981 12.4579 102.213 12.0689C102.458 11.6659 102.749 11.2929 103.085 10.9479C103.35 10.7059 103.689 10.4619 104.101 10.2139C104.512 9.9659 104.922 9.76493 105.33 9.60993C105.751 9.45593 106.094 9.39191 106.36 9.41791C106.492 9.43691 106.618 9.46291 106.737 9.49591C106.856 9.51391 106.986 9.58091 107.128 9.69391C107.31 9.79591 107.439 9.9019 107.514 10.0119C107.589 10.1219 107.686 10.3339 107.805 10.6459C107.875 10.8629 107.925 11.0789 107.955 11.2939C107.985 11.4959 107.996 11.6899 107.988 11.8759C107.978 12.0759 107.943 12.2539 107.883 12.4119C107.822 12.5689 107.743 12.6919 107.645 12.7809C107.619 12.7799 107.585 12.7849 107.545 12.7969C107.518 12.7949 107.491 12.8009 107.464 12.8129C107.383 12.8359 107.315 12.8459 107.262 12.8429C107.222 12.8419 107.173 12.8859 107.116 12.9769C107.059 13.0539 107.014 13.1589 106.981 13.2909C106.964 13.3699 106.94 13.4489 106.91 13.5279C106.893 13.6069 106.87 13.6799 106.84 13.7449C106.81 13.8099 106.781 13.8689 106.752 13.9209C106.736 13.9599 106.728 13.9929 106.727 14.0199C106.725 14.0599 106.717 14.0929 106.702 14.1189C106.688 14.1449 106.666 14.1769 106.638 14.2159C106.595 14.2809 106.551 14.3649 106.506 14.4699C106.475 14.5619 106.457 14.6609 106.452 14.7679L106.362 14.9839C106.316 15.1149 106.27 15.2329 106.225 15.3379C106.194 15.4429 106.177 15.5089 106.176 15.5359L106.078 15.9319C106.047 16.0239 106.009 16.1089 105.966 16.1869C105.936 16.2519 105.904 16.3579 105.871 16.5029C105.838 16.6349 105.795 16.8529 105.74 17.1579C105.421 18.2909 105.115 19.1369 104.822 19.6979C104.528 20.2709 104.251 20.6319 103.991 20.7799ZM102.949 13.4639C103.289 13.6129 103.648 13.6429 104.026 13.5539C104.403 13.4649 104.841 13.2449 105.338 12.8939C105.654 12.6819 105.92 12.4339 106.133 12.1499C106.36 11.8539 106.528 11.5479 106.636 11.2329C106.712 11.0359 106.738 10.8969 106.715 10.8159C106.693 10.7209 106.609 10.6639 106.463 10.6439C106.239 10.5799 105.951 10.6069 105.599 10.7239C105.247 10.8279 104.886 10.9849 104.516 11.1939C104.445 11.2839 104.361 11.3669 104.264 11.4429C104.167 11.5189 104.077 11.5809 103.995 11.6309C103.926 11.6679 103.892 11.6859 103.892 11.6859C103.878 11.7119 103.856 11.7439 103.828 11.7829C103.812 11.8219 103.778 11.8539 103.723 11.8779C103.584 11.9919 103.443 12.1659 103.298 12.3989C103.154 12.6329 103.044 12.8549 102.967 13.0649C102.904 13.2749 102.898 13.4079 102.949 13.4639ZM110.727 17.3289C110.141 17.3019 109.672 17.0599 109.319 16.6029C108.967 16.1329 108.814 15.5649 108.858 14.8999C108.907 14.4209 109.024 13.9129 109.209 13.3739C109.408 12.8229 109.659 12.3009 109.962 11.8079C110.266 11.3009 110.594 10.8619 110.944 10.4919C111.295 10.1209 111.654 9.86392 112.021 9.72092C112.158 9.65992 112.3 9.6139 112.448 9.5799C112.61 9.5479 112.771 9.53491 112.931 9.54291C113.077 9.54991 113.229 9.58292 113.386 9.64392C113.544 9.69092 113.675 9.74391 113.779 9.80191C114.002 9.90591 114.169 10.0269 114.283 10.1659C114.397 10.3049 114.494 10.5159 114.574 10.7999C114.602 11.0549 114.614 11.2359 114.609 11.3419C114.604 11.4489 114.563 11.6069 114.487 11.8169C114.305 12.2889 114.079 12.6929 113.81 13.0269C113.541 13.3619 113.188 13.6389 112.75 13.8589C112.641 13.9209 112.512 13.9679 112.363 14.0009C112.229 14.0219 112.088 14.0289 111.942 14.0219C111.675 14.0089 111.418 13.9509 111.169 13.8459C110.934 13.7279 110.748 13.5659 110.611 13.3589L110.479 13.1929L110.411 13.3499C110.261 13.7029 110.139 14.0309 110.045 14.3339C109.964 14.6369 109.918 14.9159 109.906 15.1689C109.899 15.3279 109.905 15.4819 109.925 15.6299C109.958 15.7779 110.006 15.9069 110.067 16.0169C110.117 16.0989 110.201 16.1629 110.319 16.2089C110.451 16.2419 110.59 16.2609 110.736 16.2679C110.83 16.2729 110.923 16.2769 111.016 16.2809C111.123 16.2729 111.224 16.2509 111.319 16.2149C111.55 16.1459 111.733 16.0679 111.871 15.9809C112.022 15.8939 112.173 15.8009 112.324 15.7009L112.406 15.6649L112.386 15.6639C112.55 15.5919 112.693 15.5179 112.817 15.4439C112.954 15.3699 113.022 15.3329 113.022 15.3329C113.075 15.3359 113.13 15.3049 113.187 15.2409C113.296 15.1919 113.428 15.2189 113.583 15.3189C113.752 15.4199 113.833 15.5439 113.826 15.6909C113.81 15.7569 113.745 15.8609 113.632 16.0019C113.519 16.1299 113.393 16.2509 113.255 16.3649C113.129 16.4789 113.026 16.5409 112.946 16.5509C112.932 16.5639 112.884 16.5879 112.802 16.6239C112.721 16.6469 112.666 16.6709 112.639 16.6969L112.659 16.6979C112.531 16.8519 112.408 16.9259 112.288 16.9209L112.128 16.9129C112.07 17.0039 111.892 17.1029 111.594 17.2089C111.296 17.3019 111.007 17.3419 110.727 17.3289ZM111.83 12.9749C112.07 12.9869 112.28 12.9299 112.459 12.8039C112.652 12.6669 112.819 12.5139 112.961 12.3469C113.244 11.9999 113.413 11.6609 113.468 11.3299C113.538 10.9859 113.509 10.7439 113.382 10.6049C113.304 10.5609 113.231 10.5379 113.165 10.5349C113.112 10.5189 112.998 10.5339 112.822 10.5789C112.701 10.5999 112.53 10.6919 112.309 10.8549C112.088 11.0189 111.866 11.2019 111.643 11.4049C111.433 11.6089 111.272 11.7819 111.158 11.9229L110.879 12.3309C110.988 12.2959 111.088 12.2799 111.182 12.2849C111.289 12.2759 111.348 12.2859 111.36 12.3129C111.355 12.4329 111.37 12.5469 111.405 12.6549C111.454 12.7509 111.51 12.8269 111.574 12.8829C111.652 12.9399 111.737 12.9709 111.83 12.9749Z" fill="#F67ACB"/>
</svg>
